<svg width="44" height="44" viewBox="0 0 44 44" fill="none" xmlns="http://www.w3.org/2000/svg">
<g clip-path="url(#clip0_1752_8858)">
<path d="M9.19999 18L22 21.8L34.8 18V26L22 22.2L9.19999 26V18Z" fill="url(#paint0_linear_1752_8858)"/>
<path d="M6.40002 30.2002L21.8586 21.8588L30.2 6.40019L37.8 13.6002L22.1414 22.1416L13.8 37.6002L6.40002 30.2002Z" fill="url(#paint1_linear_1752_8858)"/>
<path d="M13.8 6.40039L22.1414 21.859L37.6 30.2004L30.2 37.6004L21.8586 22.1418L6.39998 13.8004L13.8 6.40039Z" fill="url(#paint2_linear_1752_8858)"/>
<path d="M26 15.2002L22.2 22.0002L26 28.8002L18 28.8002L21.8 22.0002L18 15.2002L26 15.2002Z" fill="url(#paint3_linear_1752_8858)"/>
<rect x="2" y="18" width="8" height="8" rx="1" fill="#00ADEF"/>
<rect x="6.00002" y="6" width="8" height="8" rx="1" fill="#B9EB5F"/>
<rect x="18" y="8" width="8" height="8" rx="1" fill="#64D7D7"/>
<rect x="18" y="28" width="8" height="8" rx="1" fill="#64D7D7"/>
<rect x="6.00002" y="30" width="8" height="8" rx="1" fill="#B9EB5F"/>
<rect x="34" y="18" width="8" height="8" rx="1" fill="#00ADEF"/>
<rect x="30" y="30" width="8" height="8" rx="1" fill="#B9EB5F"/>
<rect x="30" y="6" width="8" height="8" rx="1" fill="#B9EB5F"/>
</g>
<defs>
<linearGradient id="paint0_linear_1752_8858" x1="9.19999" y1="22" x2="34.8" y2="22" gradientUnits="userSpaceOnUse">
<stop stop-color="#00ADEF" stop-opacity="0.6"/>
<stop offset="0.5" stop-color="#00ADEF" stop-opacity="0"/>
<stop offset="1" stop-color="#00ADEF" stop-opacity="0.6"/>
</linearGradient>
<linearGradient id="paint1_linear_1752_8858" x1="12.9491" y1="31.0512" x2="31.051" y2="12.9492" gradientUnits="userSpaceOnUse">
<stop stop-color="#B9EB5F" stop-opacity="0.6"/>
<stop offset="0.5" stop-color="#B9EB5F" stop-opacity="0"/>
<stop offset="1" stop-color="#B9EB5F" stop-opacity="0.6"/>
</linearGradient>
<linearGradient id="paint2_linear_1752_8858" x1="12.949" y1="12.9494" x2="31.0509" y2="31.0514" gradientUnits="userSpaceOnUse">
<stop stop-color="#B9EB5F" stop-opacity="0.6"/>
<stop offset="0.5" stop-color="#B9EB5F" stop-opacity="0"/>
<stop offset="1" stop-color="#B9EB5F" stop-opacity="0.6"/>
</linearGradient>
<linearGradient id="paint3_linear_1752_8858" x1="22" y1="15.2002" x2="22" y2="28.8002" gradientUnits="userSpaceOnUse">
<stop stop-color="#64D7D7" stop-opacity="0.6"/>
<stop offset="0.5" stop-color="#64D7D7" stop-opacity="0"/>
<stop offset="1" stop-color="#64D7D7" stop-opacity="0.6"/>
</linearGradient>
<clipPath id="clip0_1752_8858">
<rect width="40" height="40" fill="white" transform="translate(2 2)"/>
</clipPath>
</defs>
</svg>
