<svg width="24" height="24" viewBox="0 0 24 24" fill="none" xmlns="http://www.w3.org/2000/svg">
<path d="M7 20V8.975C7 8.425 7.2 7.95833 7.6 7.575C8 7.19167 8.475 7 9.025 7H20C20.55 7 21.0208 7.19583 21.4125 7.5875C21.8042 7.97917 22 8.45 22 9V17L17 22H9C8.45 22 7.97917 21.8042 7.5875 21.4125C7.19583 21.0208 7 20.55 7 20ZM9 9V20H16V16H20V9H9Z" fill="#727171"/>
<path d="M2.036 6.261C1.936 5.711 2.04433 5.21517 2.361 4.7735C2.67767 4.33183 3.111 4.061 3.661 3.961L9.086 2.9985L14.511 2.036C15.061 1.936 15.5568 2.04433 15.9985 2.361C16.4402 2.67767 16.711 3.111 16.811 3.661L17.061 5.011H15.011L14.836 4.011L4.011 5.936L5.011 11.586V18.561C4.74433 18.411 4.51517 18.211 4.3235 17.961C4.13183 17.711 4.011 17.4277 3.961 17.111L2.036 6.261Z" fill="#0087DC"/>
</svg>
