<svg width="24" height="24" viewBox="0 0 24 24" fill="none" xmlns="http://www.w3.org/2000/svg">
<path d="M9.33333 16L10.8889 14.4167L8.47222 12L10.8889 9.58333L9.33333 8L5.33333 12L9.33333 16ZM14.6667 16L18.6667 12L14.6667 8L13.1111 9.58333L15.5278 12L13.1111 14.4167L14.6667 16ZM4.22222 22C3.61111 22 3.08796 21.7824 2.65278 21.3472C2.21759 20.912 2 20.3889 2 19.7778V4.22222C2 3.61111 2.21759 3.08796 2.65278 2.65278C3.08796 2.21759 3.61111 2 4.22222 2H19.7778C20.3889 2 20.912 2.21759 21.3472 2.65278C21.7824 3.08796 22 3.61111 22 4.22222V19.7778C22 20.3889 21.7824 20.912 21.3472 21.3472C20.912 21.7824 20.3889 22 19.7778 22H4.22222ZM4.22222 19.7778H19.7778V4.22222H4.22222V19.7778Z" fill="#727171"/>
<mask id="mask0_1732_3798" style="mask-type:alpha" maskUnits="userSpaceOnUse" x="2" y="2" width="20" height="20">
<path d="M9.33333 16L10.8889 14.4167L8.47222 12L10.8889 9.58333L9.33333 8L5.33333 12L9.33333 16ZM14.6667 16L18.6667 12L14.6667 8L13.1111 9.58333L15.5278 12L13.1111 14.4167L14.6667 16ZM4.22222 22C3.61111 22 3.08796 21.7824 2.65278 21.3472C2.21759 20.912 2 20.3889 2 19.7778V4.22222C2 3.61111 2.21759 3.08796 2.65278 2.65278C3.08796 2.21759 3.61111 2 4.22222 2H19.7778C20.3889 2 20.912 2.21759 21.3472 2.65278C21.7824 3.08796 22 3.61111 22 4.22222V19.7778C22 20.3889 21.7824 20.912 21.3472 21.3472C20.912 21.7824 20.3889 22 19.7778 22H4.22222ZM4.22222 19.7778H19.7778V4.22222H4.22222V19.7778Z" fill="#727171"/>
</mask>
<g mask="url(#mask0_1732_3798)">
<rect x="13" y="7" width="6" height="10" fill="#0087DC"/>
</g>
</svg>
