<svg width="24" height="24" viewBox="0 0 24 24" fill="none" xmlns="http://www.w3.org/2000/svg">
<path d="M4 17H20V11H4V17ZM22 9H19.175L17.175 7H6.825L4.825 9H2L5.425 5.575C5.60833 5.39167 5.82083 5.25 6.0625 5.15C6.30417 5.05 6.55833 5 6.825 5H17.175C17.4417 5 17.6958 5.05 17.9375 5.15C18.1792 5.25 18.3917 5.39167 18.575 5.575L22 9ZM4 19C3.45 19 2.97917 18.8042 2.5875 18.4125C2.19583 18.0208 2 17.55 2 17V9H22V17C22 17.55 21.8042 18.0208 21.4125 18.4125C21.0208 18.8042 20.55 19 20 19H4Z" fill="#727171"/>
<circle cx="17" cy="14" r="2" fill="#0087DC"/>
</svg>
