<svg width="24" height="24" viewBox="0 0 24 24" fill="none" xmlns="http://www.w3.org/2000/svg">
<path fill-rule="evenodd" clip-rule="evenodd" d="M4.72727 12.9091H2.90909C2.40909 12.9091 2 12.5 2 12C2 11.5 2.40909 11.0909 2.90909 11.0909H4.72727C5.22727 11.0909 5.63636 11.5 5.63636 12C5.63636 12.5 5.22727 12.9091 4.72727 12.9091ZM11.0909 4.72727V2.90909C11.0909 2.40909 11.5 2 12 2C12.5 2 12.9091 2.40909 12.9091 2.90909V4.72727C12.9091 5.22727 12.5 5.63636 12 5.63636C11.5 5.63636 11.0909 5.22727 11.0909 4.72727ZM11.0909 21.0909V19.2727C11.0909 18.7727 11.5 18.3636 12 18.3636C12.5 18.3636 12.9091 18.7727 12.9091 19.2727V21.0909C12.9091 21.5909 12.5 22 12 22C11.5 22 11.0909 21.5909 11.0909 21.0909ZM5.25455 5.25455C5.6 4.9 6.18182 4.9 6.53636 5.25455L7.5 6.21818C7.85455 6.56364 7.84545 7.14545 7.5 7.5C7.15455 7.85455 6.57273 7.85455 6.21818 7.5L5.25455 6.53636C4.9 6.19091 4.9 5.60909 5.25455 5.25455ZM16.5 16.5C16.8455 16.1455 17.4273 16.1455 17.7818 16.5L18.7455 17.4636C19.1 17.8091 19.1 18.3909 18.7455 18.7455C18.4 19.1 17.8182 19.1 17.4636 18.7455L16.5 17.7818C16.1455 17.4364 16.1455 16.8545 16.5 16.5ZM7.5 16.5C7.85455 16.8455 7.85455 17.4273 7.5 17.7818L6.53636 18.7455C6.19091 19.1 5.60909 19.0909 5.25455 18.7455C4.9 18.4 4.9 17.8182 5.25455 17.4636L6.21818 16.5C6.56364 16.1455 7.14545 16.1455 7.5 16.5Z" fill="#727171"/>
<path fill-rule="evenodd" clip-rule="evenodd" d="M12 7.45459C9.49095 7.45459 7.45459 9.49095 7.45459 12C7.45459 14.5091 9.49095 16.5455 12 16.5455C14.5091 16.5455 16.5455 14.5091 16.5455 12C16.5455 9.49095 14.5091 7.45459 12 7.45459ZM14.7273 12C14.7273 10.5 13.5 9.27277 12 9.27277C10.5 9.27277 9.27277 10.5 9.27277 12C9.27277 13.5 10.5 14.7273 12 14.7273C13.5 14.7273 14.7273 13.5 14.7273 12Z" fill="#727171"/>
<path d="M21.0909 12.9092H19.2728C18.7728 12.9092 18.3637 12.5001 18.3637 12.0001C18.3637 11.5001 18.7728 11.091 19.2728 11.091H21.0909C21.5909 11.091 22 11.5001 22 12.0001C22 12.5001 21.5909 12.9092 21.0909 12.9092Z" fill="#0087DC"/>
<path d="M18.7455 5.25468C19.1 5.60013 19.1 6.18195 18.7455 6.5365L17.7819 7.50013C17.4364 7.85468 16.8546 7.84559 16.5 7.50013C16.1455 7.15468 16.1455 6.57286 16.5 6.21831L17.4637 5.25468C17.8091 4.90013 18.3909 4.90013 18.7455 5.25468Z" fill="#0087DC"/>
</svg>
